HIERARCHY
ROOT hip
{
	OFFSET 0.000000 0.000000 0.000000 
	CHANNELS 6 Xposition Yposition Zposition Xrotation Zrotation Yrotation
	JOINT abdomen
	{
		OFFSET 0.000000 3.402643 0.000000 
		CHANNELS 3 Xrotation Zrotation Yrotation
		JOINT chest
		{
			OFFSET 0.000000 8.438565 -0.680529 
			CHANNELS 3 Xrotation Zrotation Yrotation
			JOINT neck
			{
				OFFSET 0.000000 10.207942 -0.272212 
				CHANNELS 3 Xrotation Zrotation Yrotation
				JOINT head
				{
					OFFSET 0.000000 3.130431 0.000000 
					CHANNELS 3 Xrotation Zrotation Yrotation
					End Site
					{
						OFFSET 0.000000 3.130435 0.000000 
					}
				}
			}
			JOINT lCollar
			{
				OFFSET 3.470700 6.669187 -0.816635 
				CHANNELS 3 Yrotation Zrotation Xrotation
				JOINT lShldr
				{
					OFFSET 3.198488 0.000000 0.000000 
					CHANNELS 3 Zrotation Yrotation Xrotation
					JOINT lForeArm
					{
						OFFSET 10.139888 0.000000 0.000000 
						CHANNELS 3 Yrotation Zrotation Xrotation
						JOINT lHand
						{
							OFFSET 8.370511 0.000000 0.000000 
							CHANNELS 3 Zrotation Yrotation Xrotation
							End Site
							{
								OFFSET 4.083176 0.000000 0.000000 
							}
						}
					}
				}
			}
			JOINT rCollar
			{
				OFFSET -3.470700 6.669187 -0.816635 
				CHANNELS 3 Yrotation Zrotation Xrotation
				JOINT rShldr
				{
					OFFSET -3.198488 0.000000 0.000000 
					CHANNELS 3 Zrotation Yrotation Xrotation
					JOINT rForeArm
					{
						OFFSET -10.139888 0.000000 0.000000 
						CHANNELS 3 Yrotation Zrotation Xrotation
						JOINT rHand
						{
							OFFSET -8.370511 0.000000 0.000000 
							CHANNELS 3 Zrotation Yrotation Xrotation
							End Site
							{
								OFFSET -4.083176 0.000000 0.000000 
							}
						}
					}
				}
			}
		}
	}
	JOINT lThigh
	{
		OFFSET 5.308129 -1.633274 1.361059 
		CHANNELS 3 Xrotation Zrotation Yrotation
		JOINT lShin
		{
			OFFSET -2.041588 -20.007561 0.000000 
			CHANNELS 3 Xrotation Zrotation Yrotation
			JOINT lFoot
			{
				OFFSET 0.000000 -19.190928 -1.224953 
				CHANNELS 3 Xrotation Yrotation Zrotation
				End Site
				{
					OFFSET 0.000000 -2.449906 4.627600 
				}
			}
		}
	}
	JOINT rThigh
	{
		OFFSET -5.308129 -1.633274 1.361059 
		CHANNELS 3 Xrotation Zrotation Yrotation
		JOINT rShin
		{
			OFFSET 2.041588 -20.007561 0.000000 
			CHANNELS 3 Xrotation Zrotation Yrotation
			JOINT rFoot
			{
				OFFSET 0.000000 -19.190928 -1.224953 
				CHANNELS 3 Xrotation Yrotation Zrotation
				End Site
				{
					OFFSET 0.000000 -2.449906 4.627600 
				}
			}
		}
	}
}
MOTION
Frames: 18
Frame Time: 0.016667
92.225136 52.596100 7.711447 -5.758820 11.433014 19.375273 30.986324 -3.191691 -5.922849 -1.220546 1.469149 -7.413488 -8.348726 -4.014086 0.429484 -0.092191 -12.654145 60.819801 -9.858211 -7.325024 -0.387387 -51.318138 1.633273 -3.355675 -18.032434 -5.000000 45.000000 -26.947756 17.129396 29.490660 4.915111 7.258429 -0.375555 64.631073 -19.894106 -26.243227 22.574100 5.000000 31.877371 5.965813 -19.085827 29.723064 -2.216626 9.412373 5.692771 64.968979 -2.651114 -6.310347 7.228364 -0.943842 -8.499326 4.122054 -14.170137 23.716362 25.611135 9.042230 4.904503 -17.379709 -12.383219 1.403952 
92.978439 52.585751 7.698040 -5.901859 10.959098 18.683695 30.935396 -2.824934 -5.602985 -1.233629 1.440294 -7.169403 -8.397674 -4.121758 0.435906 -0.159829 -12.645397 61.042336 -9.820368 -7.500573 -0.396442 -51.025124 1.816085 -3.489864 -17.918491 -5.000000 45.000000 -26.882919 17.138241 29.647743 5.121428 7.257556 -0.385203 64.567680 -19.884855 -26.227770 22.530724 5.000000 32.270790 5.864505 -19.288580 29.872232 -2.538025 11.019378 2.752465 62.536480 -2.748180 -5.828737 5.792029 0.325332 -8.000560 4.121754 -14.632136 24.541824 25.636314 9.028786 4.905478 -17.566612 -12.524520 1.858489 
93.747704 52.558899 7.672607 -6.011026 10.385649 18.010931 30.858767 -2.372779 -5.215995 -1.247712 1.430942 -6.895780 -8.437793 -4.256935 0.457061 -0.203177 -12.594786 61.214607 -9.792391 -7.685873 -0.405995 -50.771027 1.991710 -3.616037 -17.831074 -5.000000 45.000000 -26.823366 17.118738 29.795525 5.296944 7.218517 -0.383181 64.507889 -19.914671 -26.229057 22.479654 5.000000 32.660942 5.829015 -19.502190 29.958546 -2.703848 12.623390 -0.127558 59.477894 -2.827148 -5.294951 4.489090 1.875383 -7.339022 4.063156 -15.044582 25.245831 25.588707 9.016469 4.887182 -17.648460 -12.576651 2.396919 
94.541046 52.507278 7.629138 -6.089743 9.655732 17.363960 30.715897 -1.770743 -4.767992 -1.262867 1.441081 -6.622406 -8.448082 -4.412884 0.470806 -0.196519 -12.478730 61.319630 -9.784049 -7.880922 -0.416046 -50.585178 2.156509 -3.749475 -17.781364 -5.000000 45.000000 -26.798498 17.081135 29.917011 5.423242 7.120973 -0.378130 64.455940 -19.970207 -26.263758 22.389637 5.000000 33.067345 5.895004 -19.718403 29.952011 -2.576271 14.280331 -2.981862 55.529255 -2.943759 -4.662333 3.240399 3.578733 -6.531706 3.926056 -15.447824 25.766859 25.423189 9.075235 4.898548 -17.671816 -12.483338 2.938618 
95.334366 52.455647 7.585663 -6.148571 8.928911 16.723091 30.589043 -1.167949 -4.320743 -1.277238 1.441468 -6.348788 -8.468918 -4.567370 0.494177 -0.208090 -12.367774 61.424942 -9.764612 -8.077628 -0.416564 -50.399872 2.329743 -3.875638 -17.720209 -5.000000 45.000000 -26.759680 17.047379 30.060871 5.559378 7.033178 -0.373583 64.391457 -20.034719 -26.279030 22.300879 5.000000 33.465252 5.960952 -19.934574 29.944710 -2.528234 15.943639 -5.854760 51.580376 -3.021184 -4.001728 1.912051 5.278212 -5.668437 3.789917 -15.836226 26.290239 25.253077 9.116097 4.895060 -17.688513 -12.458658 3.462670 
96.201393 52.347275 7.513300 -6.186299 7.963163 16.038303 30.341101 -0.347887 -3.664025 -1.264474 1.451474 -6.133991 -8.440106 -4.713664 0.506461 -0.154933 -12.296602 61.566998 -9.756732 -8.144240 -0.430992 -50.490662 2.511704 -4.091928 -17.675713 -5.000000 45.000000 -26.828648 17.030972 30.001011 5.762381 6.711314 -0.356906 64.483620 -20.151842 -26.378546 22.194109 5.000000 33.790398 5.973170 -20.282434 29.947250 -1.991166 17.575502 -8.478306 46.751675 -2.961847 -3.327699 1.295657 6.624516 -4.543528 3.594132 -16.150635 26.665087 24.889992 9.203602 4.849249 -17.753233 -12.246346 3.902315 
97.068413 52.238892 7.440931 -6.203843 7.008344 15.371887 30.115551 0.469380 -3.022346 -1.251409 1.461491 -5.909431 -8.411390 -4.869612 0.520205 -0.098618 -12.233685 61.704353 -9.747489 -8.212508 -0.434518 -50.572071 2.695126 -4.294145 -17.625937 -5.000000 45.000000 -26.894930 17.018873 29.949535 5.955716 6.389450 -0.339132 64.568680 -20.277288 -26.480309 22.086580 5.000000 34.115780 5.995422 -20.627838 29.956913 -1.530762 19.221550 -11.120996 41.952839 -2.847709 -2.691901 0.652618 7.965061 -3.419527 3.399636 -16.470856 27.020893 24.508305 9.276939 4.826787 -17.819162 -12.044679 4.356525 
97.987274 52.091850 7.349362 -6.256724 5.884992 14.748131 29.877956 1.526463 -2.314060 -1.226233 1.432505 -5.655326 -8.313211 -4.998057 0.519951 -0.049678 -12.093451 61.819798 -9.766571 -8.153991 -0.431495 -50.877747 2.854249 -4.500500 -17.558886 -5.000000 45.000000 -26.853298 16.951057 29.918909 6.138504 5.911547 -0.314416 64.796738 -20.407345 -26.612980 21.976074 5.000000 34.397781 6.082816 -20.907032 29.848289 -0.965772 20.855721 -13.696954 37.353413 -2.638958 -2.099405 0.398031 8.907822 -2.474507 3.244302 -16.670649 27.244738 24.086376 9.344468 4.749465 -17.836899 -11.908954 4.800183 
98.940681 51.919037 7.244995 -6.313035 4.668643 14.169444 29.664436 2.732481 -1.577226 -1.180689 1.383991 -5.391462 -8.175838 -5.116848 0.518242 0.002757 -11.910339 61.895714 -9.804524 -8.007698 -0.422576 -51.330059 2.999253 -4.716806 -17.488564 -5.000000 45.000000 -26.729490 16.863232 29.906199 6.291664 5.326372 -0.284123 65.102341 -20.550278 -26.747011 21.873997 5.000000 34.654163 6.221988 -21.123749 29.661459 -0.370009 22.497726 -16.250525 32.903141 -2.355141 -1.599657 0.485343 9.592657 -1.710844 3.126239 -16.823673 27.370920 23.574160 9.366039 4.650695 -17.869846 -11.784991 5.270671 
99.909874 51.746712 7.133248 -6.366480 3.511933 13.620373 29.467659 3.893458 -0.882240 -1.146321 1.354951 -5.147363 -8.029539 -5.234175 0.526152 0.059432 -11.746426 61.980598 -9.821778 -7.882581 -0.406513 -51.781727 3.129019 -4.919788 -17.421938 -5.000000 45.000000 -26.641813 16.774136 29.873161 6.454949 4.750945 -0.253497 65.398552 -20.696806 -26.879835 21.797834 5.000000 34.847160 6.366447 -21.332634 29.519001 0.127851 24.011196 -18.744204 28.813177 -2.100951 -1.176765 0.469538 10.194409 -1.201601 3.019075 -17.045361 27.471569 23.071182 9.388411 4.525599 -17.881582 -11.662316 5.795406 
100.941727 51.576519 6.992054 -6.377495 2.634363 13.139159 29.318926 4.789185 -0.360245 -1.105722 1.384391 -5.000917 -7.852395 -5.383393 0.519220 0.116023 -11.663383 62.077896 -9.762625 -7.804563 -0.402492 -52.238827 3.208983 -5.050193 -17.390324 -5.000000 45.000000 -26.628418 16.737659 29.836994 6.647990 4.214523 -0.225768 65.672539 -20.812624 -26.993696 21.795799 5.000000 34.806553 6.510153 -21.516090 29.506359 0.500855 24.903408 -20.904085 26.137585 -1.983644 -1.041763 0.195516 10.728364 -1.843189 2.970113 -17.555555 27.478756 22.572107 9.256713 4.421036 -17.835476 -11.687159 6.377048 
101.973709 51.406315 6.850831 -6.385665 1.743673 12.662477 29.189610 5.703425 0.169218 -1.064742 1.413843 -4.844710 -7.676177 -5.540803 0.523369 0.183505 -11.579491 62.162460 -9.703476 -7.726543 -0.398470 -52.695988 3.287083 -5.182168 -17.351408 -5.000000 45.000000 -26.608759 16.691984 29.792442 6.841295 3.678100 -0.198019 65.952583 -20.928324 -27.100197 21.802174 5.000000 34.760139 6.666924 -21.703278 29.480255 0.840749 25.829557 -23.044376 23.431726 -1.862351 -0.940831 -0.117704 11.221603 -2.451982 2.941293 -18.068161 27.504143 22.074104 9.153544 4.264498 -17.800314 -11.673924 6.957477 
103.047836 51.291836 6.683086 -6.327180 1.488765 12.250523 29.084919 5.932911 0.359395 -1.006884 1.472484 -4.727553 -7.548903 -5.609854 0.523985 0.256997 -11.579270 62.204105 -9.666217 -7.793171 -0.411527 -52.945457 3.329557 -5.281774 -17.240320 -5.000000 45.000000 -26.488787 16.558645 29.747276 6.957601 3.601243 -0.184305 65.885834 -21.020832 -27.179789 21.876955 5.000000 34.642517 6.746163 -21.726603 29.466072 0.979404 25.715759 -24.152006 22.377499 -2.149360 -0.981563 -1.300885 11.833376 -3.722992 2.864003 -19.133049 27.525473 21.717606 8.877973 4.105206 -17.481049 -11.854080 7.415462 
104.132584 51.191307 6.508683 -6.240465 1.395412 11.849273 29.006191 5.978012 0.483657 -0.929557 1.531118 -4.620161 -7.421440 -5.659593 0.520718 0.326344 -11.595070 62.231792 -9.637711 -7.900452 -0.417055 -53.154758 3.355403 -5.370345 -17.113161 -5.000000 45.000000 -26.335861 16.401896 29.704332 7.065118 3.630500 -0.185819 65.738480 -21.105310 -27.241899 21.977539 5.000000 34.493626 6.819062 -21.701702 29.424486 1.057960 25.363379 -24.951857 21.751038 -2.491708 -1.101498 -2.709750 12.411512 -5.176004 2.754680 -20.369974 27.598738 21.382545 8.578347 3.879331 -17.097902 -12.046610 7.864584 
105.234184 51.116550 6.318098 -6.158235 1.454397 11.537120 28.937654 5.942536 0.497956 -0.881929 1.579949 -4.542051 -7.284025 -5.690021 0.515488 0.341785 -11.633559 62.269318 -9.599962 -8.076000 -0.427470 -53.274059 3.357894 -5.427971 -17.010189 -5.000000 45.000000 -26.189812 16.253355 29.644644 7.143734 3.776789 -0.193390 65.525993 -21.177959 -27.277487 22.136356 5.000000 34.206814 6.932466 -21.653994 29.413578 1.123503 24.716061 -25.179388 21.639439 -2.979639 -1.295065 -4.571715 13.065979 -6.521245 2.590414 -21.652594 27.707380 21.191204 8.228090 3.681420 -16.341242 -12.314336 8.134757 
106.361122 51.080460 6.103227 -6.076852 1.742767 11.323747 28.927692 5.737366 0.387301 -0.843136 1.579935 -4.493219 -7.136837 -5.720449 0.510258 0.290320 -11.709750 62.288048 -9.563005 -8.349072 -0.441572 -53.271736 3.309121 -5.427869 -16.940502 -5.000000 45.000000 -26.061398 16.134380 29.569098 7.193710 4.098623 -0.210041 65.210968 -21.213140 -27.274904 22.393435 5.000000 33.699337 7.100448 -21.580338 29.422119 1.103918 23.583426 -24.437080 22.339613 -3.574546 -1.612823 -7.136101 13.718365 -7.732992 2.297594 -23.030958 27.879459 21.220655 7.775262 3.511603 -15.040339 -12.661568 8.114853 
107.488068 51.044407 5.888338 -6.008916 2.021891 11.120400 28.927696 5.523174 0.272834 -0.804848 1.589674 -4.454152 -6.979876 -5.750877 0.505030 0.236905 -11.782374 62.315872 -9.516354 -8.622145 -0.455666 -53.269218 3.252524 -5.433050 -16.875082 -5.000000 45.000000 -25.935291 16.011595 29.484741 7.243779 4.420457 -0.226685 64.885933 -21.262230 -27.265184 22.641237 5.000000 33.198578 7.276394 -21.518559 29.419230 1.057552 22.444231 -23.709528 23.073042 -4.146885 -1.975100 -9.626620 14.472992 -8.946744 2.005427 -24.395256 28.079597 21.285324 7.319130 3.306281 -13.754316 -13.023315 8.128398 
108.644791 51.044434 5.646414 -6.065353 2.051322 11.022809 29.009817 5.666451 0.336221 -0.698709 1.609165 -4.502975 -6.931451 -5.906826 0.518779 0.196888 -11.873057 62.351894 -9.421270 -8.934235 -0.471761 -53.356636 3.050220 -5.423682 -16.816717 -5.000000 45.000000 -25.823376 15.924157 29.493843 7.244215 4.527735 -0.232232 64.762344 -21.173721 -27.346838 22.997509 5.000000 32.678383 7.319027 -21.378454 29.508654 1.164759 21.357971 -22.153400 24.146606 -4.521752 -2.247082 -12.228592 14.476315 -9.487253 1.320764 -25.112484 28.242519 21.990705 6.714272 3.108918 -10.800154 -13.229760 7.753723 
